PathFileType	4	(X/Y/Z)	Patient4_TMGait_0pt5_01_left_25.trc.trc
DataRate	CameraRate	NumFrames	NumMarkers	Units	OrigDataRate	OrigDataStartFrame	OrigNumFrames
73.684210526316	73.684210526316	5	33	mm	73.684210526316	36	       141
Frame#	Time	L.ASIS			Sacral			L.Shoulder			Chest			R.Shoulder			Neck			R.ASIS			R.Thigh.Superior			R.Thigh.Lateral			R.Thigh.Inferior			R.Patella			L.Thigh.Superior			L.Thigh.Lateral			L.Thigh.Inferior			L.Patella			L.Shank.Superior			L.Shank.Lateral			L.Shank.Inferior			R.Shank.Superior			R.Shank.Lateral			R.Shank.Inferior			R.Heel			R.Midfoot.Superior			R.Midfoot.Lateral			R.Toe			L.Heel			L.Midfoot.Lateral			L.Midfoot.Superior			L.Toe			L.Elbow			L.Wrist			R.Elbow			R.Wrist			
		X1	Y1	Z1	X2	Y2	Z2	X3	Y3	Z3	X4	Y4	Z4	X5	Y5	Z5	X6	Y6	Z6	X7	Y7	Z7	X8	Y8	Z8	X9	Y9	Z9	X10	Y10	Z10	X11	Y11	Z11	X12	Y12	Z12	X13	Y13	Z13	X14	Y14	Z14	X15	Y15	Z15	X16	Y16	Z16	X17	Y17	Z17	X18	Y18	Z18	X19	Y19	Z19	X20	Y20	Z20	X21	Y21	Z21	X22	Y22	Z22	X23	Y23	Z23	X24	Y24	Z24	X25	Y25	Z25	X26	Y26	Z26	X27	Y27	Z27	X28	Y28	Z28	X29	Y29	Z29	X30	Y30	Z30	X31	Y31	Z31	X32	Y32	Z32	X33	Y33	Z33	

36	33.875000000000	881.029154675720	955.349416207517	334.578449810929	677.057622880881	999.303612601267	505.951192229718	821.437756711075	1432.833415726143	322.666011187266	941.061271282695	1361.357457587902	471.058943755785	873.408223040108	1431.214201973749	654.412471283875	838.589383851248	1491.197870902264	473.387049442774	911.561189496091	938.154439831189	608.389675514690	922.695659171080	726.984489038007	587.618943884366	825.751266878367	629.427370108095	652.022092030299	893.371512293788	562.871518811527	576.213994580383	878.100271196746	466.070534805518	588.180815671429	957.994572609109	763.604442376728	371.508096818514	895.979022505658	634.975109063408	306.803944872629	993.843813997079	571.339647711654	370.017055346901	1006.542128796034	497.407097417821	376.209181362241	979.857886745461	421.967557163915	367.808768864413	892.742948934041	307.048426076239	313.568364945703	945.865378594471	195.391890095062	381.809157567072	823.227210024581	389.178054316000	595.595071919735	724.123787102578	311.900186283661	658.138683088207	740.617623750489	206.195157330430	601.624556818550	570.253801760972	65.576486841623	573.335861354113	745.472011120774	99.793348463472	613.285373611381	650.402579702601	47.261103646472	649.366089375548	857.215629881689	37.677575863157	645.366956356781	820.293704080855	37.946408603661	418.643737850480	894.797950394886	35.977585286753	338.328065115231	976.941032273989	97.505594158253	365.571061391799	1105.626917339039	47.820455252419	337.735747483369	727.462362710846	1091.346919336020	209.725392119494	788.329580194086	836.782700909672	189.854457320892	935.303032204242	1097.761934855458	782.664249283440	1175.892661102287	1044.225409320083	721.945580406294	
37	33.888571428571	880.937743819928	955.750413279154	331.272681969777	676.418691404731	999.712560203472	502.171986040769	820.722814406636	1433.313939260310	318.967028693947	940.037715923644	1362.157405473641	467.751108043537	871.630397644336	1431.990723773835	650.875942549491	837.342904874533	1491.758955817665	469.684036013735	910.540869788341	938.739735040683	604.976476433783	923.634093574176	727.708905834694	585.090875000667	827.742815456023	629.511488732561	649.650921620058	896.502560579205	563.181779738516	574.177308508400	881.994803862950	465.033940551297	587.459802936881	957.042005601550	763.084517065340	368.160364241161	893.234817396281	634.568322153048	304.742188759457	990.763355742362	570.397843844156	367.736141002704	1002.882814660592	496.652678556119	374.754287680570	975.789599867280	421.136492426610	366.682200088247	888.101946274157	306.594362821696	312.601121248041	940.107830370440	194.895443063630	381.516262787845	824.998047470562	389.137562383912	594.740625695313	723.907851052920	314.437262670848	657.161710825522	738.544934360234	208.018786083613	601.518433882604	565.117877000349	71.451515779228	573.557215190161	741.034681122352	100.621698424647	613.614526993886	644.655169117611	50.551171236454	649.463873479794	850.580525541240	37.144057276540	645.371220746355	813.446028874693	37.889052988566	418.605254518340	887.940731651891	35.881102162973	338.267347551856	970.153699715679	97.331754773546	365.585134824720	1098.858779377715	47.508755664139	337.715515606969	728.327025450643	1091.288027957917	205.898451531316	795.566854662566	838.166933836497	186.694538311469	926.180904181645	1097.486851969675	780.460484336173	1164.560393378067	1030.676679026408	722.988942797438	
38	33.902142857143	880.786854975863	956.186905303239	328.055778767148	675.651415123588	1000.239762564529	498.367873255582	820.222794318831	1433.913877000299	315.225494527161	939.038176748049	1363.034250995248	464.511453217839	869.701468028285	1432.827057247501	647.332521710267	836.107232128860	1492.399752958776	465.969126075245	909.313513684484	939.440631705432	601.632334077956	925.051084387502	728.728634844151	582.542302568397	830.673385136239	629.629653261583	647.348607993764	900.749363481065	563.724438935920	572.153870595815	887.139394609287	464.153312183444	586.814088481785	955.758223549490	762.416007434853	364.887823313867	890.152610691413	634.261533992408	302.601541623894	987.148131327794	569.451593285240	365.554759539699	998.636534690048	495.899547770625	373.259504580981	971.201088922067	420.363071355056	365.454802678971	883.045840759831	306.094972927527	311.578235584548	934.136239523252	194.436519375389	381.152761495708	827.954134760672	389.259138029550	593.954169577093	724.778423214611	317.438009521134	656.222309204495	737.306264140402	210.335291526316	601.457227780746	560.578992844701	78.661164354596	573.703150208149	737.046176258209	101.715070055400	613.846735205090	639.219911902583	54.768304681060	649.500305494481	843.893877627302	36.544973730600	645.393356713611	806.564562712960	37.821646950188	418.565728487520	881.050908559098	35.768625194533	338.202342337723	963.334187834836	97.140490854495	365.583174729947	1092.060633866764	47.177475009400	337.710368026486	729.274661440307	1091.463928932084	201.908123965610	802.975191312346	839.970288570407	183.580663600495	916.716606182679	1097.308276248004	777.893986160111	1152.095086070216	1016.699029012610	724.191893370397	
39	33.915714285714	880.534880460880	956.643252951126	324.957487744904	674.715151899272	1000.857257530481	494.569253529302	819.946089920915	1434.579199454329	311.465043098668	938.067366675810	1363.930079576336	461.365991337238	867.649383310120	1433.695660669145	643.799447965920	834.901726753354	1493.083542170180	462.256639201264	907.851927455479	940.209470752098	598.412884491395	926.939136981619	730.066651824829	579.967575023756	834.581520132480	629.795693582375	645.127853728915	906.139263326558	564.536928997918	570.151774293522	893.573954492655	463.486976223838	586.215734679214	954.142264855835	761.653191960235	361.716669565048	886.774745609431	634.075845793860	300.382892875089	983.053573639309	568.530872743334	363.452421554933	993.855101647764	495.168193774043	371.709403791482	966.148465848344	419.661641603390	364.119371110145	877.631585640736	305.570375559964	310.475202673306	927.980853083619	194.027633463149	380.711634313966	832.154263435702	389.576713308918	593.206626054508	726.817463482046	320.935268893123	655.295398153033	736.960215965140	213.203205958512	601.397851446693	556.761843040809	87.309118754382	573.718247731297	733.559301232215	103.207821715424	613.973129511505	634.176739414382	60.052649774563	649.431271417283	837.187475553516	35.876535644013	645.440706595176	799.672481570938	37.751620294013	418.518683519230	874.150347429892	35.649780130570	338.124426557859	956.499020872186	96.949126397856	365.551891677355	1085.249689013640	46.857036145244	337.707611993834	730.394436696453	1091.815074790103	197.714231108281	810.565001358991	842.125118542602	180.516682939481	906.935450890865	1097.198175793694	774.987198242073	1138.419039491473	1002.422105012270	725.542887063308	
40	33.929285714286	880.151586193788	957.098661223507	322.010391937822	673.579177846935	1001.523372321933	490.802354091243	819.882496248874	1435.246494810948	307.713570481466	937.120508719505	1364.785354489798	458.342026046666	865.494761904221	1434.562166642636	640.298997213137	833.741000578389	1493.769142643137	458.562694572220	906.144494174949	940.995056735368	595.372920785536	929.258149470402	731.739635279244	577.374849456596	839.432784704495	630.040502117905	642.997349065724	912.616029045134	565.662000507883	568.182985195606	901.250972848126	463.105913512455	585.627791446961	952.207412328309	760.839072604114	358.651509539540	883.128762770557	634.007282201210	298.098480308413	978.549204771896	567.650584258516	361.391272106204	988.613378707933	494.470868053676	370.085900094211	960.704856011600	419.036240461592	362.672671734194	871.918859384535	305.037281250410	309.284109071929	921.675102032955	193.672840008074	380.190462225014	837.579186713560	390.133232107935	592.460997917363	730.040780454306	324.945122405637	654.346880443047	737.524077783109	216.665154610987	601.286181924201	553.779632496811	97.413096454976	573.544193747820	730.624988110387	105.245239617861	613.990647014421	629.616654718161	66.494915340104	649.208875358006	830.529753320233	35.157246756570	645.511790950895	792.786466679725	37.683913825504	418.460380654805	867.254441715683	35.531174035390	338.028400429251	949.660372510694	96.769046325802	365.482644073735	1078.437999244005	46.567612170158	337.696765056510	731.768702598426	1092.263573214093	193.292665037430	818.349068516800	844.542589586965	177.503450041472	896.874629151786	1097.128079597783	771.781988721339	1123.476000396721	987.975351880297	727.023850408973	
